<svg version="1.2" xmlns="http://www.w3.org/2000/svg" viewBox="0 0 750 750" width="750" height="750">
	<title>nr-low-resolution-color-logo-svg</title>
	<defs>
		<clipPath clipPathUnits="userSpaceOnUse" id="cp1">
			<path d="m375 725c-193.55 0-350-156.45-350-350 0-193.55 156.45-350 350-350 193.55 0 350 156.45 350 350 0 193.55-156.45 350-350 350z"/>
		</clipPath>
	</defs>
	<style>
		.s0 { fill: #000000 } 
		.s1 { fill: #ca3433 } 
		.s2 { fill: #f7e1e1 } 
	</style>
	<g clip-path="url(#cp1)">
		<path id="форма 1" class="s0" d="m375 725c-193.6 0-350-156.5-350-350 0-193.6 156.4-350 350-350 193.5 0 350 156.4 350 350 0 193.5-156.5 350-350 350z"/>
		<path id="Layer" class="s1" d="m-125 0h1000v750h-1000z"/>
	</g>
	<g id="Layer">
		<g id="Layer">
			<g id="tight-bounds">
				<g id="Layer">
					<g id="Layer">
						<g id="Layer">
						</g>
					</g>
					<g id="Layer">
						<g id="Layer">
							<g id="Layer">
								<path id="Layer" fill-rule="evenodd" class="s2" d="m617.5 515c-23.5 40.5-193.8 140-242.5 140-48.7 0-219-99.5-242.5-140-22.7-39.3-22.7-240.7 0-280 23.5-40.5 193.8-140 242.5-140 48.7 0 219 99.5 242.5 140 22.7 39.3 22.7 240.7 0 280zm-13.9-272c-20.7-35.7-187.3-131.9-228.6-131.9-41.3 0-207.9 96.1-228.6 131.9-19.3 33.3-19.3 230.6 0 263.9 20.7 35.8 187.3 132 228.6 132 41.3 0 207.9-96.1 228.6-131.9 19.3-33.3 19.3-230.7 0-264zm-5.6 260.7c-20.1 34.9-182.7 128.8-223 128.8-40.3 0-202.8-93.9-223-128.7-18.8-32.5-18.8-225.1 0-257.5 20.2-34.9 182.7-128.8 223-128.8 40.3 0 202.9 93.9 223 128.8 18.8 32.4 18.8 225 0 257.4z"/>
							</g>
							<g id="Layer">
								<g id="Layer">
									<g id="Layer">
										<g id="Layer">
											<g id="Layer">
												<g id="Layer">
													<g id="textblocktransform">
														<g id="textblock">
															<g id="Layer">
																<g id="Layer">
																	<path id="Layer" class="s2" d="m555.8 309.2c-1.7-23.9-6.5-30.5-6.5-30.5-15-24.6-33.6-19.3-50.4-15.8-29.6 0.2-59.1 5.4-88.6 8.2-61.9 0.5-124.4-6.6-186.1 10.8-5.8 5.4-36.9 1.1-29.9 30.4 1.9 12.2 8.6 25.7 8.4 36.9 0.9 2 2.2-2.5 2.8 0.3 1.9 7.6 5 4 7.6 8.5-3.6 12-1 22 1.4 32.5-4.3 2.7-9.8 1.4-12.3 10.4-0.3 6.6-1.6 5.4-3.2 5.1-1.1-0.2-3.3 0.5-2.9 2.5 1.2 7.1-4.3 11.1-0.8 18-2.4 7.5 1.6 13.9 1.1 22-0.1 1.6 0.3 3 0.9 3.4 2.6 2.1-1.2 6.1-0.8 10.4 27.2 29.8 56.6 9.2 84.5 22.9 7.2-9.6 1.7 3.4 4.6 1.4 2.3-2.4 3.9 7.3 6.5 1.8 0.4-1.5-0.2-5.3 1.2-4.6 0.7 0.4 1.4 0.3 1.5-1.9 0.1-3.3-1.2-1.2-1.6-2.9 3.9-8.7 2.9 12 6.6 11.1-0.2-2.5-1.3-6.2 0.9-5.7 2.2-3.6 2.2-6.6 4.1 1.5 0.1 1.8 0.4 3.1 1 3.9 6-8.9 11.9 3.2 18.2-0.8 3.8-4.4 7.5 2.4 11.4 0.7 1.4-1.4 2.8-3.8 4.1 0.3 16.1 0.8 33.3-2.8 48.5 0.1 40.8-5.3 84.5 2.2 127.5-4.9 10.1-2.7 20.7-6.6 30.6-9.7 0 0 8-8.5 8-46.7 0-38.3 1.7-33.5 1.9-64 0.3-30.4 1.5-31.6-0.2-55.6z"/>
																	<g id="Layer">
																		<g id="Layer">
																			<path id="text-0" fill-rule="evenodd" class="s1" d="m345.3 459.2l-83.4-134.7v134.7h-17.4v-168.4h17.4l83.4 134.5v-134.5h17.6v168.4zm142.3 0l-19-55.8q-4.3 0.5-7.7 0.5h-42.8v55.3h-17.3v-168.4h58.4q23.1 0 34.5 14.7 11.5 14.7 11.5 38.5 0 18-3.8 31.9-3.7 13.8-16.7 21.9l20.7 61.4zm-28.8-72.2q12.9 0 19.2-6.9 6.2-6.8 7.8-15.6 1.6-8.7 1.6-19.8 0-37-30.8-37h-38.5v79.3z"/>
																		</g>
																	</g>
																</g>
															</g>
														</g>
													</g>
												</g>
											</g>
											<g id="Layer">
											</g>
										</g>
									</g>
								</g>
							</g>
						</g>
					</g>
				</g>
			</g>
		</g>
	</g>
</svg>